<mxfile host="Electron" agent="Mozilla/5.0 (Macintosh; Intel Mac OS X 10_15_7) AppleWebKit/537.36 (KHTML, like Gecko) draw.io/24.7.8 Chrome/128.0.6613.36 Electron/32.0.1 Safari/537.36" version="24.7.8">
  <diagram name="第 1 页" id="fKXHp48z9-JT8zKdLmF3">
    <mxGraphModel dx="954" dy="727" grid="1" gridSize="10" guides="1" tooltips="1" connect="1" arrows="1" fold="1" page="1" pageScale="1" pageWidth="827" pageHeight="1169" math="0" shadow="0">
      <root>
        <mxCell id="0" />
        <mxCell id="1" parent="0" />
        <mxCell id="RPwCq47kBZK3VTYY2CfH-1" value="2" style="whiteSpace=wrap;html=1;aspect=fixed;" vertex="1" parent="1">
          <mxGeometry x="240" y="199" width="40" height="40" as="geometry" />
        </mxCell>
        <mxCell id="RPwCq47kBZK3VTYY2CfH-2" value="3" style="whiteSpace=wrap;html=1;aspect=fixed;" vertex="1" parent="1">
          <mxGeometry x="280" y="199" width="40" height="40" as="geometry" />
        </mxCell>
        <mxCell id="RPwCq47kBZK3VTYY2CfH-3" value="1" style="whiteSpace=wrap;html=1;aspect=fixed;" vertex="1" parent="1">
          <mxGeometry x="320" y="199" width="40" height="40" as="geometry" />
        </mxCell>
        <mxCell id="RPwCq47kBZK3VTYY2CfH-4" value="1" style="whiteSpace=wrap;html=1;aspect=fixed;" vertex="1" parent="1">
          <mxGeometry x="360" y="199" width="40" height="40" as="geometry" />
        </mxCell>
        <mxCell id="RPwCq47kBZK3VTYY2CfH-5" value="4" style="whiteSpace=wrap;html=1;aspect=fixed;" vertex="1" parent="1">
          <mxGeometry x="400" y="199" width="40" height="40" as="geometry" />
        </mxCell>
        <mxCell id="RPwCq47kBZK3VTYY2CfH-6" value="" style="rounded=0;whiteSpace=wrap;html=1;strokeColor=none;fillColor=#FF0000;" vertex="1" parent="1">
          <mxGeometry x="240" y="260" width="120" height="20" as="geometry" />
        </mxCell>
        <mxCell id="RPwCq47kBZK3VTYY2CfH-7" value="" style="rounded=0;whiteSpace=wrap;html=1;strokeColor=none;fillColor=#FF0000;" vertex="1" parent="1">
          <mxGeometry x="280" y="329" width="160" height="20" as="geometry" />
        </mxCell>
        <mxCell id="RPwCq47kBZK3VTYY2CfH-8" value="0" style="text;html=1;align=center;verticalAlign=middle;resizable=0;points=[];autosize=1;strokeColor=none;fillColor=none;" vertex="1" parent="1">
          <mxGeometry x="245" y="164" width="30" height="30" as="geometry" />
        </mxCell>
        <mxCell id="RPwCq47kBZK3VTYY2CfH-9" value="1" style="text;html=1;align=center;verticalAlign=middle;resizable=0;points=[];autosize=1;strokeColor=none;fillColor=none;" vertex="1" parent="1">
          <mxGeometry x="285" y="164" width="30" height="30" as="geometry" />
        </mxCell>
        <mxCell id="RPwCq47kBZK3VTYY2CfH-10" value="2" style="text;html=1;align=center;verticalAlign=middle;resizable=0;points=[];autosize=1;strokeColor=none;fillColor=none;" vertex="1" parent="1">
          <mxGeometry x="325" y="164" width="30" height="30" as="geometry" />
        </mxCell>
        <mxCell id="RPwCq47kBZK3VTYY2CfH-11" value="3" style="text;html=1;align=center;verticalAlign=middle;resizable=0;points=[];autosize=1;strokeColor=none;fillColor=none;" vertex="1" parent="1">
          <mxGeometry x="365" y="164" width="30" height="30" as="geometry" />
        </mxCell>
        <mxCell id="RPwCq47kBZK3VTYY2CfH-12" value="4" style="text;html=1;align=center;verticalAlign=middle;resizable=0;points=[];autosize=1;strokeColor=none;fillColor=none;" vertex="1" parent="1">
          <mxGeometry x="405" y="164" width="30" height="30" as="geometry" />
        </mxCell>
        <mxCell id="RPwCq47kBZK3VTYY2CfH-13" value="下标 i：" style="text;html=1;align=center;verticalAlign=middle;resizable=0;points=[];autosize=1;strokeColor=none;fillColor=none;" vertex="1" parent="1">
          <mxGeometry x="160" y="164" width="70" height="30" as="geometry" />
        </mxCell>
        <mxCell id="RPwCq47kBZK3VTYY2CfH-16" value="第一步可覆盖范围" style="text;html=1;align=center;verticalAlign=middle;resizable=0;points=[];autosize=1;strokeColor=none;fillColor=none;" vertex="1" parent="1">
          <mxGeometry x="240" y="280" width="120" height="30" as="geometry" />
        </mxCell>
        <mxCell id="RPwCq47kBZK3VTYY2CfH-17" value="第二步可覆盖范围" style="text;html=1;align=center;verticalAlign=middle;resizable=0;points=[];autosize=1;strokeColor=none;fillColor=none;" vertex="1" parent="1">
          <mxGeometry x="285" y="349" width="120" height="30" as="geometry" />
        </mxCell>
        <mxCell id="RPwCq47kBZK3VTYY2CfH-19" value="第二步可覆盖范围覆盖到了终点" style="text;html=1;align=center;verticalAlign=middle;resizable=0;points=[];autosize=1;strokeColor=none;fillColor=none;fontColor=#FF0000;" vertex="1" parent="1">
          <mxGeometry x="450" y="324" width="190" height="30" as="geometry" />
        </mxCell>
        <mxCell id="RPwCq47kBZK3VTYY2CfH-23" style="edgeStyle=orthogonalEdgeStyle;rounded=0;orthogonalLoop=1;jettySize=auto;html=1;" edge="1" parent="1" source="RPwCq47kBZK3VTYY2CfH-21">
          <mxGeometry relative="1" as="geometry">
            <mxPoint x="340" y="160" as="targetPoint" />
          </mxGeometry>
        </mxCell>
        <mxCell id="RPwCq47kBZK3VTYY2CfH-21" value="移动下标 i 走到这里还没有到终点，&lt;div&gt;就一定要加一步了，&lt;div&gt;即启动下一步覆盖范围&lt;/div&gt;&lt;/div&gt;" style="text;html=1;align=center;verticalAlign=middle;resizable=0;points=[];autosize=1;strokeColor=none;fillColor=none;" vertex="1" parent="1">
          <mxGeometry x="235" y="40" width="210" height="60" as="geometry" />
        </mxCell>
      </root>
    </mxGraphModel>
  </diagram>
</mxfile>
